<mxfile host="app.diagrams.net" modified="2021-12-15T04:22:22.609Z" agent="5.0 (Macintosh; Intel Mac OS X 10_15_7) AppleWebKit/537.36 (KHTML, like Gecko) Chrome/96.0.4664.55 Safari/537.36" etag="Fast8GLuRup1qkNU8tt6" version="15.9.6" type="github">
  <diagram name="Page-1" id="74e2e168-ea6b-b213-b513-2b3c1d86103e">
    <mxGraphModel dx="1186" dy="623" grid="1" gridSize="10" guides="1" tooltips="1" connect="1" arrows="1" fold="1" page="1" pageScale="1" pageWidth="1100" pageHeight="850" background="none" math="0" shadow="0">
      <root>
        <mxCell id="0" />
        <mxCell id="1" parent="0" />
        <mxCell id="77e6c97f196da883-1" value="&lt;font face=&quot;Montserrat&quot; data-font-src=&quot;https://fonts.googleapis.com/css?family=Montserrat&quot;&gt;Internal User AuthN / AuthZ&lt;/font&gt;" style="swimlane;html=1;childLayout=stackLayout;startSize=20;rounded=0;shadow=0;labelBackgroundColor=none;strokeWidth=1;fontFamily=Verdana;fontSize=8;align=center;" parent="1" vertex="1">
          <mxGeometry x="70" y="40" width="520" height="550" as="geometry" />
        </mxCell>
        <mxCell id="77e6c97f196da883-2" value="Internal User" style="swimlane;html=1;startSize=20;fontFamily=Montserrat;fontSource=https%3A%2F%2Ffonts.googleapis.com%2Fcss%3Ffamily%3DMontserrat;fillColor=#083488;fontColor=#FFFFFF;" parent="77e6c97f196da883-1" vertex="1">
          <mxGeometry y="20" width="160" height="530" as="geometry" />
        </mxCell>
        <mxCell id="77e6c97f196da883-8" value="Access the Internal Portal" style="rounded=1;whiteSpace=wrap;html=1;shadow=0;labelBackgroundColor=none;strokeWidth=1;fontFamily=Montserrat;fontSize=8;align=center;fontSource=https%3A%2F%2Ffonts.googleapis.com%2Fcss%3Ffamily%3DMontserrat;" parent="77e6c97f196da883-2" vertex="1">
          <mxGeometry x="20" y="60" width="100" height="60" as="geometry" />
        </mxCell>
        <mxCell id="X5WUj9LV7zyZnJoSoSZw-10" value="Display Portal with complete list of APIs" style="rounded=1;whiteSpace=wrap;html=1;shadow=0;labelBackgroundColor=none;strokeWidth=1;fontFamily=Montserrat;fontSize=8;align=center;fontSource=https%3A%2F%2Ffonts.googleapis.com%2Fcss%3Ffamily%3DMontserrat;fillColor=#d5e8d4;gradientColor=#97d077;strokeColor=#82b366;" parent="77e6c97f196da883-2" vertex="1">
          <mxGeometry x="20" y="180" width="100" height="60" as="geometry" />
        </mxCell>
        <mxCell id="X5WUj9LV7zyZnJoSoSZw-14" value="Display Ping Log in Page" style="rounded=1;whiteSpace=wrap;html=1;shadow=0;labelBackgroundColor=none;strokeWidth=1;fontFamily=Montserrat;fontSize=8;align=center;fontSource=https%3A%2F%2Ffonts.googleapis.com%2Fcss%3Ffamily%3DMontserrat;" parent="77e6c97f196da883-2" vertex="1">
          <mxGeometry x="20" y="300" width="100" height="60" as="geometry" />
        </mxCell>
        <mxCell id="77e6c97f196da883-26" style="edgeStyle=orthogonalEdgeStyle;rounded=1;html=1;labelBackgroundColor=none;startArrow=none;startFill=0;startSize=5;endArrow=classicThin;endFill=1;endSize=5;jettySize=auto;orthogonalLoop=1;strokeWidth=1;fontFamily=Verdana;fontSize=8" parent="77e6c97f196da883-1" source="77e6c97f196da883-8" target="77e6c97f196da883-11" edge="1">
          <mxGeometry relative="1" as="geometry" />
        </mxCell>
        <mxCell id="107ba76e4e335f99-1" style="edgeStyle=orthogonalEdgeStyle;rounded=1;html=1;labelBackgroundColor=none;startArrow=none;startFill=0;startSize=5;endArrow=classicThin;endFill=1;endSize=5;jettySize=auto;orthogonalLoop=1;strokeWidth=1;fontFamily=Verdana;fontSize=8;exitX=0.5;exitY=1;exitDx=0;exitDy=0;entryX=0.5;entryY=0;entryDx=0;entryDy=0;" parent="77e6c97f196da883-1" source="X5WUj9LV7zyZnJoSoSZw-5" target="X5WUj9LV7zyZnJoSoSZw-7" edge="1">
          <mxGeometry relative="1" as="geometry">
            <mxPoint x="610" y="450" as="sourcePoint" />
            <mxPoint x="560" y="480" as="targetPoint" />
          </mxGeometry>
        </mxCell>
        <mxCell id="77e6c97f196da883-3" value="Internal Portal" style="swimlane;html=1;startSize=20;fontFamily=Montserrat;fontSource=https%3A%2F%2Ffonts.googleapis.com%2Fcss%3Ffamily%3DMontserrat;fillColor=#083488;fontColor=#FFFFFF;" parent="77e6c97f196da883-1" vertex="1">
          <mxGeometry x="160" y="20" width="200" height="530" as="geometry" />
        </mxCell>
        <mxCell id="77e6c97f196da883-11" value="User Lands on Portal" style="rounded=1;whiteSpace=wrap;html=1;shadow=0;labelBackgroundColor=none;strokeWidth=1;fontFamily=Montserrat;fontSize=8;align=center;fontSource=https%3A%2F%2Ffonts.googleapis.com%2Fcss%3Ffamily%3DMontserrat;" parent="77e6c97f196da883-3" vertex="1">
          <mxGeometry x="30" y="60" width="100" height="60" as="geometry" />
        </mxCell>
        <mxCell id="X5WUj9LV7zyZnJoSoSZw-7" value="Is User Logged In?" style="rhombus;whiteSpace=wrap;html=1;fontFamily=Montserrat;fontSource=https%3A%2F%2Ffonts.googleapis.com%2Fcss%3Ffamily%3DMontserrat;fontSize=8;" parent="77e6c97f196da883-3" vertex="1">
          <mxGeometry x="50" y="170" width="80" height="80" as="geometry" />
        </mxCell>
        <mxCell id="X5WUj9LV7zyZnJoSoSZw-13" value="&lt;font color=&quot;#000000&quot; style=&quot;font-size: 8px;&quot;&gt;Yes&lt;/font&gt;" style="text;html=1;strokeColor=none;fillColor=none;align=center;verticalAlign=middle;whiteSpace=wrap;rounded=0;fontFamily=Montserrat;fontSource=https%3A%2F%2Ffonts.googleapis.com%2Fcss%3Ffamily%3DMontserrat;fontColor=#FFFFFF;fontSize=8;" parent="77e6c97f196da883-3" vertex="1">
          <mxGeometry x="-2" y="187" width="60" height="30" as="geometry" />
        </mxCell>
        <mxCell id="X5WUj9LV7zyZnJoSoSZw-23" value="&lt;font color=&quot;#000000&quot; style=&quot;font-size: 8px;&quot;&gt;No&lt;/font&gt;" style="text;html=1;strokeColor=none;fillColor=none;align=center;verticalAlign=middle;whiteSpace=wrap;rounded=0;fontFamily=Montserrat;fontSource=https%3A%2F%2Ffonts.googleapis.com%2Fcss%3Ffamily%3DMontserrat;fontColor=#FFFFFF;fontSize=8;" parent="77e6c97f196da883-3" vertex="1">
          <mxGeometry y="250" width="60" height="30" as="geometry" />
        </mxCell>
        <mxCell id="X5WUj9LV7zyZnJoSoSZw-25" value="User is Authenticated Successfully" style="rounded=1;whiteSpace=wrap;html=1;shadow=0;labelBackgroundColor=none;strokeWidth=1;fontFamily=Montserrat;fontSize=8;align=center;fontSource=https%3A%2F%2Ffonts.googleapis.com%2Fcss%3Ffamily%3DMontserrat;" parent="77e6c97f196da883-3" vertex="1">
          <mxGeometry x="20" y="400" width="100" height="60" as="geometry" />
        </mxCell>
        <mxCell id="X5WUj9LV7zyZnJoSoSZw-28" value="&lt;font color=&quot;#000000&quot; style=&quot;font-size: 8px;&quot;&gt;Yes&lt;/font&gt;" style="text;html=1;strokeColor=none;fillColor=none;align=center;verticalAlign=middle;whiteSpace=wrap;rounded=0;fontFamily=Montserrat;fontSource=https%3A%2F%2Ffonts.googleapis.com%2Fcss%3Ffamily%3DMontserrat;fontColor=#FFFFFF;fontSize=8;" parent="77e6c97f196da883-3" vertex="1">
          <mxGeometry x="127" y="406" width="60" height="30" as="geometry" />
        </mxCell>
        <mxCell id="77e6c97f196da883-4" value="Ping" style="swimlane;html=1;startSize=20;fontFamily=Montserrat;fontSource=https%3A%2F%2Ffonts.googleapis.com%2Fcss%3Ffamily%3DMontserrat;fillColor=#083488;fontColor=#FFFFFF;" parent="77e6c97f196da883-1" vertex="1">
          <mxGeometry x="360" y="20" width="160" height="530" as="geometry" />
        </mxCell>
        <mxCell id="X5WUj9LV7zyZnJoSoSZw-5" value="Obtain Logged in Status" style="rounded=1;whiteSpace=wrap;html=1;shadow=0;labelBackgroundColor=none;strokeWidth=1;fontFamily=Montserrat;fontSize=8;align=center;fontSource=https%3A%2F%2Ffonts.googleapis.com%2Fcss%3Ffamily%3DMontserrat;" parent="77e6c97f196da883-4" vertex="1">
          <mxGeometry x="30" y="60" width="100" height="60" as="geometry" />
        </mxCell>
        <mxCell id="X5WUj9LV7zyZnJoSoSZw-19" style="edgeStyle=orthogonalEdgeStyle;rounded=0;orthogonalLoop=1;jettySize=auto;html=1;entryX=0.5;entryY=0;entryDx=0;entryDy=0;fontFamily=Montserrat;fontSource=https%3A%2F%2Ffonts.googleapis.com%2Fcss%3Ffamily%3DMontserrat;fontSize=8;fontColor=#000000;" parent="77e6c97f196da883-4" source="X5WUj9LV7zyZnJoSoSZw-16" target="X5WUj9LV7zyZnJoSoSZw-18" edge="1">
          <mxGeometry relative="1" as="geometry" />
        </mxCell>
        <mxCell id="X5WUj9LV7zyZnJoSoSZw-16" value="User Enters Log in Credential" style="rounded=1;whiteSpace=wrap;html=1;shadow=0;labelBackgroundColor=none;strokeWidth=1;fontFamily=Montserrat;fontSize=8;align=center;fontSource=https%3A%2F%2Ffonts.googleapis.com%2Fcss%3Ffamily%3DMontserrat;" parent="77e6c97f196da883-4" vertex="1">
          <mxGeometry x="20" y="300" width="100" height="60" as="geometry" />
        </mxCell>
        <mxCell id="X5WUj9LV7zyZnJoSoSZw-18" value="Authentication Success" style="rhombus;whiteSpace=wrap;html=1;fontFamily=Montserrat;fontSource=https%3A%2F%2Ffonts.googleapis.com%2Fcss%3Ffamily%3DMontserrat;fontSize=8;" parent="77e6c97f196da883-4" vertex="1">
          <mxGeometry x="30" y="390" width="80" height="80" as="geometry" />
        </mxCell>
        <mxCell id="X5WUj9LV7zyZnJoSoSZw-24" value="&lt;font color=&quot;#000000&quot; style=&quot;font-size: 8px;&quot;&gt;No&lt;/font&gt;" style="text;html=1;strokeColor=none;fillColor=none;align=center;verticalAlign=middle;whiteSpace=wrap;rounded=0;fontFamily=Montserrat;fontSource=https%3A%2F%2Ffonts.googleapis.com%2Fcss%3Ffamily%3DMontserrat;fontColor=#FFFFFF;fontSize=8;" parent="77e6c97f196da883-4" vertex="1">
          <mxGeometry y="470" width="60" height="30" as="geometry" />
        </mxCell>
        <mxCell id="X5WUj9LV7zyZnJoSoSZw-6" style="edgeStyle=orthogonalEdgeStyle;rounded=0;orthogonalLoop=1;jettySize=auto;html=1;entryX=0;entryY=0.5;entryDx=0;entryDy=0;fontFamily=Montserrat;fontSource=https%3A%2F%2Ffonts.googleapis.com%2Fcss%3Ffamily%3DMontserrat;fontColor=#000000;" parent="77e6c97f196da883-1" source="77e6c97f196da883-11" target="X5WUj9LV7zyZnJoSoSZw-5" edge="1">
          <mxGeometry relative="1" as="geometry" />
        </mxCell>
        <mxCell id="X5WUj9LV7zyZnJoSoSZw-12" style="edgeStyle=orthogonalEdgeStyle;rounded=1;html=1;labelBackgroundColor=none;startArrow=none;startFill=0;startSize=5;endArrow=classicThin;endFill=1;endSize=5;jettySize=auto;orthogonalLoop=1;strokeWidth=1;fontFamily=Verdana;fontSize=8;exitX=0;exitY=0.5;exitDx=0;exitDy=0;entryX=1;entryY=0.5;entryDx=0;entryDy=0;" parent="77e6c97f196da883-1" source="X5WUj9LV7zyZnJoSoSZw-7" target="X5WUj9LV7zyZnJoSoSZw-10" edge="1">
          <mxGeometry relative="1" as="geometry">
            <mxPoint x="710" y="270" as="sourcePoint" />
            <mxPoint x="560" y="320" as="targetPoint" />
          </mxGeometry>
        </mxCell>
        <mxCell id="X5WUj9LV7zyZnJoSoSZw-15" style="edgeStyle=orthogonalEdgeStyle;rounded=1;html=1;labelBackgroundColor=none;startArrow=none;startFill=0;startSize=5;endArrow=classicThin;endFill=1;endSize=5;jettySize=auto;orthogonalLoop=1;strokeWidth=1;fontFamily=Verdana;fontSize=8;exitX=0.5;exitY=1;exitDx=0;exitDy=0;entryX=0.5;entryY=0;entryDx=0;entryDy=0;" parent="77e6c97f196da883-1" source="X5WUj9LV7zyZnJoSoSZw-7" target="X5WUj9LV7zyZnJoSoSZw-14" edge="1">
          <mxGeometry relative="1" as="geometry">
            <mxPoint x="325" y="320" as="sourcePoint" />
            <mxPoint x="175" y="370" as="targetPoint" />
          </mxGeometry>
        </mxCell>
        <mxCell id="X5WUj9LV7zyZnJoSoSZw-17" style="edgeStyle=orthogonalEdgeStyle;rounded=1;html=1;labelBackgroundColor=none;startArrow=none;startFill=0;startSize=5;endArrow=classicThin;endFill=1;endSize=5;jettySize=auto;orthogonalLoop=1;strokeWidth=1;fontFamily=Verdana;fontSize=8;exitX=1;exitY=0.5;exitDx=0;exitDy=0;entryX=0;entryY=0.5;entryDx=0;entryDy=0;" parent="77e6c97f196da883-1" source="X5WUj9LV7zyZnJoSoSZw-14" target="X5WUj9LV7zyZnJoSoSZw-16" edge="1">
          <mxGeometry relative="1" as="geometry">
            <mxPoint x="325" y="350" as="sourcePoint" />
            <mxPoint x="175" y="400" as="targetPoint" />
          </mxGeometry>
        </mxCell>
        <mxCell id="X5WUj9LV7zyZnJoSoSZw-22" style="edgeStyle=orthogonalEdgeStyle;rounded=1;html=1;labelBackgroundColor=none;startArrow=none;startFill=0;startSize=5;endArrow=classicThin;endFill=1;endSize=5;jettySize=auto;orthogonalLoop=1;strokeWidth=1;fontFamily=Verdana;fontSize=8;exitX=0.5;exitY=1;exitDx=0;exitDy=0;entryX=0.5;entryY=1;entryDx=0;entryDy=0;" parent="77e6c97f196da883-1" source="X5WUj9LV7zyZnJoSoSZw-18" target="X5WUj9LV7zyZnJoSoSZw-14" edge="1">
          <mxGeometry relative="1" as="geometry">
            <mxPoint x="290" y="440" as="sourcePoint" />
            <mxPoint x="140" y="490" as="targetPoint" />
          </mxGeometry>
        </mxCell>
        <mxCell id="X5WUj9LV7zyZnJoSoSZw-26" style="edgeStyle=orthogonalEdgeStyle;rounded=0;orthogonalLoop=1;jettySize=auto;html=1;exitX=0;exitY=0.5;exitDx=0;exitDy=0;fontFamily=Montserrat;fontSource=https%3A%2F%2Ffonts.googleapis.com%2Fcss%3Ffamily%3DMontserrat;fontSize=8;fontColor=#000000;" parent="77e6c97f196da883-1" source="X5WUj9LV7zyZnJoSoSZw-18" target="X5WUj9LV7zyZnJoSoSZw-25" edge="1">
          <mxGeometry relative="1" as="geometry" />
        </mxCell>
        <mxCell id="X5WUj9LV7zyZnJoSoSZw-27" style="edgeStyle=orthogonalEdgeStyle;rounded=1;html=1;labelBackgroundColor=none;startArrow=none;startFill=0;startSize=5;endArrow=classicThin;endFill=1;endSize=5;jettySize=auto;orthogonalLoop=1;strokeWidth=1;fontFamily=Verdana;fontSize=8;exitX=0;exitY=0.5;exitDx=0;exitDy=0;entryX=1;entryY=0.75;entryDx=0;entryDy=0;" parent="77e6c97f196da883-1" source="X5WUj9LV7zyZnJoSoSZw-25" target="X5WUj9LV7zyZnJoSoSZw-10" edge="1">
          <mxGeometry relative="1" as="geometry">
            <mxPoint x="410" y="150" as="sourcePoint" />
            <mxPoint x="260" y="200" as="targetPoint" />
          </mxGeometry>
        </mxCell>
        <mxCell id="X5WUj9LV7zyZnJoSoSZw-1" value="Text" style="text;html=1;strokeColor=none;fillColor=none;align=center;verticalAlign=middle;whiteSpace=wrap;rounded=0;fontFamily=Montserrat;fontSource=https%3A%2F%2Ffonts.googleapis.com%2Fcss%3Ffamily%3DMontserrat;fontColor=#FFFFFF;" parent="1" vertex="1">
          <mxGeometry x="520" y="240" width="60" height="30" as="geometry" />
        </mxCell>
        <mxCell id="ejRBN-qsrpSPwmUWedO5-1" value="&lt;font face=&quot;Montserrat&quot; data-font-src=&quot;https://fonts.googleapis.com/css?family=Montserrat&quot;&gt;Portal Admin User AuthN / AuthZ&lt;/font&gt;" style="swimlane;html=1;childLayout=stackLayout;startSize=20;rounded=0;shadow=0;labelBackgroundColor=none;strokeWidth=1;fontFamily=Verdana;fontSize=8;align=center;strokeColor=#4FAEEA;" vertex="1" parent="1">
          <mxGeometry x="650" y="40" width="520" height="550" as="geometry" />
        </mxCell>
        <mxCell id="ejRBN-qsrpSPwmUWedO5-2" value="Internal User" style="swimlane;html=1;startSize=20;fontFamily=Montserrat;fontSource=https%3A%2F%2Ffonts.googleapis.com%2Fcss%3Ffamily%3DMontserrat;fillColor=#083488;fontColor=#FFFFFF;strokeColor=#4FAEEA;" vertex="1" parent="ejRBN-qsrpSPwmUWedO5-1">
          <mxGeometry y="20" width="160" height="530" as="geometry" />
        </mxCell>
        <mxCell id="ejRBN-qsrpSPwmUWedO5-3" value="Access the Portal Admin UI" style="rounded=1;whiteSpace=wrap;html=1;shadow=0;labelBackgroundColor=none;strokeWidth=1;fontFamily=Montserrat;fontSize=8;align=center;fontSource=https%3A%2F%2Ffonts.googleapis.com%2Fcss%3Ffamily%3DMontserrat;strokeColor=#4FAEEA;" vertex="1" parent="ejRBN-qsrpSPwmUWedO5-2">
          <mxGeometry x="20" y="60" width="100" height="60" as="geometry" />
        </mxCell>
        <mxCell id="ejRBN-qsrpSPwmUWedO5-4" value="Display Portal with API user has access to" style="rounded=1;whiteSpace=wrap;html=1;shadow=0;labelBackgroundColor=none;strokeWidth=1;fontFamily=Montserrat;fontSize=8;align=center;fontSource=https%3A%2F%2Ffonts.googleapis.com%2Fcss%3Ffamily%3DMontserrat;fillColor=#d5e8d4;gradientColor=#97d077;strokeColor=#4FAEEA;" vertex="1" parent="ejRBN-qsrpSPwmUWedO5-2">
          <mxGeometry x="10" y="420" width="100" height="60" as="geometry" />
        </mxCell>
        <mxCell id="ejRBN-qsrpSPwmUWedO5-5" value="Display Ping Log in Page" style="rounded=1;whiteSpace=wrap;html=1;shadow=0;labelBackgroundColor=none;strokeWidth=1;fontFamily=Montserrat;fontSize=8;align=center;fontSource=https%3A%2F%2Ffonts.googleapis.com%2Fcss%3Ffamily%3DMontserrat;strokeColor=#4FAEEA;" vertex="1" parent="ejRBN-qsrpSPwmUWedO5-2">
          <mxGeometry x="20" y="235" width="100" height="60" as="geometry" />
        </mxCell>
        <mxCell id="ejRBN-qsrpSPwmUWedO5-6" style="edgeStyle=orthogonalEdgeStyle;rounded=1;html=1;labelBackgroundColor=none;startArrow=none;startFill=0;startSize=5;endArrow=classicThin;endFill=1;endSize=5;jettySize=auto;orthogonalLoop=1;strokeWidth=1;fontFamily=Verdana;fontSize=8;strokeColor=#6666FF;" edge="1" parent="ejRBN-qsrpSPwmUWedO5-1" source="ejRBN-qsrpSPwmUWedO5-3" target="ejRBN-qsrpSPwmUWedO5-9">
          <mxGeometry relative="1" as="geometry" />
        </mxCell>
        <mxCell id="ejRBN-qsrpSPwmUWedO5-7" style="edgeStyle=orthogonalEdgeStyle;rounded=1;html=1;labelBackgroundColor=none;startArrow=none;startFill=0;startSize=5;endArrow=classicThin;endFill=1;endSize=5;jettySize=auto;orthogonalLoop=1;strokeWidth=1;fontFamily=Verdana;fontSize=8;exitX=0.5;exitY=1;exitDx=0;exitDy=0;entryX=0.5;entryY=0;entryDx=0;entryDy=0;strokeColor=#6666FF;" edge="1" parent="ejRBN-qsrpSPwmUWedO5-1" source="ejRBN-qsrpSPwmUWedO5-18" target="ejRBN-qsrpSPwmUWedO5-10">
          <mxGeometry relative="1" as="geometry">
            <mxPoint x="610" y="450" as="sourcePoint" />
            <mxPoint x="560" y="480" as="targetPoint" />
            <Array as="points">
              <mxPoint x="440" y="150" />
              <mxPoint x="230" y="150" />
            </Array>
          </mxGeometry>
        </mxCell>
        <mxCell id="ejRBN-qsrpSPwmUWedO5-8" value="Portal Management UI" style="swimlane;html=1;startSize=20;fontFamily=Montserrat;fontSource=https%3A%2F%2Ffonts.googleapis.com%2Fcss%3Ffamily%3DMontserrat;fillColor=#083488;fontColor=#FFFFFF;strokeColor=#4FAEEA;" vertex="1" parent="ejRBN-qsrpSPwmUWedO5-1">
          <mxGeometry x="160" y="20" width="200" height="530" as="geometry" />
        </mxCell>
        <mxCell id="ejRBN-qsrpSPwmUWedO5-9" value="User Lands on Portal" style="rounded=1;whiteSpace=wrap;html=1;shadow=0;labelBackgroundColor=none;strokeWidth=1;fontFamily=Montserrat;fontSize=8;align=center;fontSource=https%3A%2F%2Ffonts.googleapis.com%2Fcss%3Ffamily%3DMontserrat;strokeColor=#4FAEEA;" vertex="1" parent="ejRBN-qsrpSPwmUWedO5-8">
          <mxGeometry x="30" y="60" width="100" height="60" as="geometry" />
        </mxCell>
        <mxCell id="ejRBN-qsrpSPwmUWedO5-10" value="Is User Logged In?" style="rhombus;whiteSpace=wrap;html=1;fontFamily=Montserrat;fontSource=https%3A%2F%2Ffonts.googleapis.com%2Fcss%3Ffamily%3DMontserrat;fontSize=8;strokeColor=#4FAEEA;" vertex="1" parent="ejRBN-qsrpSPwmUWedO5-8">
          <mxGeometry x="40" y="150" width="60" height="80" as="geometry" />
        </mxCell>
        <mxCell id="ejRBN-qsrpSPwmUWedO5-11" value="&lt;font color=&quot;#000000&quot; style=&quot;font-size: 8px;&quot;&gt;Yes&lt;/font&gt;" style="text;html=1;strokeColor=none;fillColor=none;align=center;verticalAlign=middle;whiteSpace=wrap;rounded=0;fontFamily=Montserrat;fontSource=https%3A%2F%2Ffonts.googleapis.com%2Fcss%3Ffamily%3DMontserrat;fontColor=#FFFFFF;fontSize=8;" vertex="1" parent="ejRBN-qsrpSPwmUWedO5-8">
          <mxGeometry x="130" y="170" width="60" height="30" as="geometry" />
        </mxCell>
        <mxCell id="ejRBN-qsrpSPwmUWedO5-13" value="User is Authenticated Successfully" style="rounded=1;whiteSpace=wrap;html=1;shadow=0;labelBackgroundColor=none;strokeWidth=1;fontFamily=Montserrat;fontSize=8;align=center;fontSource=https%3A%2F%2Ffonts.googleapis.com%2Fcss%3Ffamily%3DMontserrat;strokeColor=#4FAEEA;" vertex="1" parent="ejRBN-qsrpSPwmUWedO5-8">
          <mxGeometry x="58" y="365" width="100" height="30" as="geometry" />
        </mxCell>
        <mxCell id="ejRBN-qsrpSPwmUWedO5-15" value="&lt;font color=&quot;#000000&quot; style=&quot;font-size: 8px;&quot;&gt;No&lt;/font&gt;" style="text;html=1;strokeColor=none;fillColor=none;align=center;verticalAlign=middle;whiteSpace=wrap;rounded=0;fontFamily=Montserrat;fontSource=https%3A%2F%2Ffonts.googleapis.com%2Fcss%3Ffamily%3DMontserrat;fontColor=#FFFFFF;fontSize=8;" vertex="1" parent="ejRBN-qsrpSPwmUWedO5-8">
          <mxGeometry x="-2" y="170" width="60" height="30" as="geometry" />
        </mxCell>
        <mxCell id="ejRBN-qsrpSPwmUWedO5-16" value="Retrieve APIs based on API access groups" style="rounded=1;whiteSpace=wrap;html=1;shadow=0;labelBackgroundColor=none;strokeWidth=1;fontFamily=Montserrat;fontSize=8;align=center;fontSource=https%3A%2F%2Ffonts.googleapis.com%2Fcss%3Ffamily%3DMontserrat;strokeColor=#4FAEEA;" vertex="1" parent="ejRBN-qsrpSPwmUWedO5-8">
          <mxGeometry x="58" y="430" width="100" height="40" as="geometry" />
        </mxCell>
        <mxCell id="ejRBN-qsrpSPwmUWedO5-17" value="Ping" style="swimlane;html=1;startSize=20;fontFamily=Montserrat;fontSource=https%3A%2F%2Ffonts.googleapis.com%2Fcss%3Ffamily%3DMontserrat;fillColor=#083488;fontColor=#FFFFFF;strokeColor=#4FAEEA;" vertex="1" parent="ejRBN-qsrpSPwmUWedO5-1">
          <mxGeometry x="360" y="20" width="160" height="530" as="geometry" />
        </mxCell>
        <mxCell id="ejRBN-qsrpSPwmUWedO5-18" value="Obtain Logged in Status" style="rounded=1;whiteSpace=wrap;html=1;shadow=0;labelBackgroundColor=none;strokeWidth=1;fontFamily=Montserrat;fontSize=8;align=center;fontSource=https%3A%2F%2Ffonts.googleapis.com%2Fcss%3Ffamily%3DMontserrat;strokeColor=#4FAEEA;" vertex="1" parent="ejRBN-qsrpSPwmUWedO5-17">
          <mxGeometry x="30" y="60" width="100" height="60" as="geometry" />
        </mxCell>
        <mxCell id="ejRBN-qsrpSPwmUWedO5-32" style="edgeStyle=orthogonalEdgeStyle;rounded=0;orthogonalLoop=1;jettySize=auto;html=1;entryX=0.5;entryY=0;entryDx=0;entryDy=0;strokeColor=#6666FF;" edge="1" parent="ejRBN-qsrpSPwmUWedO5-17" source="ejRBN-qsrpSPwmUWedO5-20" target="ejRBN-qsrpSPwmUWedO5-21">
          <mxGeometry relative="1" as="geometry" />
        </mxCell>
        <mxCell id="ejRBN-qsrpSPwmUWedO5-20" value="User Enters Log in Credential" style="rounded=1;whiteSpace=wrap;html=1;shadow=0;labelBackgroundColor=none;strokeWidth=1;fontFamily=Montserrat;fontSize=8;align=center;fontSource=https%3A%2F%2Ffonts.googleapis.com%2Fcss%3Ffamily%3DMontserrat;strokeColor=#4FAEEA;" vertex="1" parent="ejRBN-qsrpSPwmUWedO5-17">
          <mxGeometry x="30" y="235" width="100" height="60" as="geometry" />
        </mxCell>
        <mxCell id="ejRBN-qsrpSPwmUWedO5-21" value="Authentication Success" style="rhombus;whiteSpace=wrap;html=1;fontFamily=Montserrat;fontSource=https%3A%2F%2Ffonts.googleapis.com%2Fcss%3Ffamily%3DMontserrat;fontSize=8;strokeColor=#4FAEEA;" vertex="1" parent="ejRBN-qsrpSPwmUWedO5-17">
          <mxGeometry x="40" y="340" width="80" height="80" as="geometry" />
        </mxCell>
        <mxCell id="ejRBN-qsrpSPwmUWedO5-22" value="&lt;font color=&quot;#000000&quot; style=&quot;font-size: 8px;&quot;&gt;No&lt;/font&gt;" style="text;html=1;strokeColor=none;fillColor=none;align=center;verticalAlign=middle;whiteSpace=wrap;rounded=0;fontFamily=Montserrat;fontSource=https%3A%2F%2Ffonts.googleapis.com%2Fcss%3Ffamily%3DMontserrat;fontColor=#FFFFFF;fontSize=8;" vertex="1" parent="ejRBN-qsrpSPwmUWedO5-17">
          <mxGeometry y="355" width="60" height="30" as="geometry" />
        </mxCell>
        <mxCell id="ejRBN-qsrpSPwmUWedO5-23" value="Provide API access groups" style="rounded=1;whiteSpace=wrap;html=1;shadow=0;labelBackgroundColor=none;strokeWidth=1;fontFamily=Montserrat;fontSize=8;align=center;fontSource=https%3A%2F%2Ffonts.googleapis.com%2Fcss%3Ffamily%3DMontserrat;strokeColor=#4FAEEA;" vertex="1" parent="ejRBN-qsrpSPwmUWedO5-17">
          <mxGeometry x="30" y="160" width="100" height="60" as="geometry" />
        </mxCell>
        <mxCell id="ejRBN-qsrpSPwmUWedO5-14" value="&lt;font color=&quot;#000000&quot; style=&quot;font-size: 8px;&quot;&gt;Yes&lt;/font&gt;" style="text;html=1;strokeColor=none;fillColor=none;align=center;verticalAlign=middle;whiteSpace=wrap;rounded=0;fontFamily=Montserrat;fontSource=https%3A%2F%2Ffonts.googleapis.com%2Fcss%3Ffamily%3DMontserrat;fontColor=#FFFFFF;fontSize=8;" vertex="1" parent="ejRBN-qsrpSPwmUWedO5-17">
          <mxGeometry x="30" y="420" width="60" height="30" as="geometry" />
        </mxCell>
        <mxCell id="ejRBN-qsrpSPwmUWedO5-24" style="edgeStyle=orthogonalEdgeStyle;rounded=0;orthogonalLoop=1;jettySize=auto;html=1;entryX=0;entryY=0.5;entryDx=0;entryDy=0;fontFamily=Montserrat;fontSource=https%3A%2F%2Ffonts.googleapis.com%2Fcss%3Ffamily%3DMontserrat;fontColor=#000000;strokeColor=#6666FF;" edge="1" parent="ejRBN-qsrpSPwmUWedO5-1" source="ejRBN-qsrpSPwmUWedO5-9" target="ejRBN-qsrpSPwmUWedO5-18">
          <mxGeometry relative="1" as="geometry" />
        </mxCell>
        <mxCell id="ejRBN-qsrpSPwmUWedO5-25" style="edgeStyle=orthogonalEdgeStyle;rounded=1;html=1;labelBackgroundColor=none;startArrow=none;startFill=0;startSize=5;endArrow=classicThin;endFill=1;endSize=5;jettySize=auto;orthogonalLoop=1;strokeWidth=1;fontFamily=Verdana;fontSize=8;exitX=1;exitY=0.5;exitDx=0;exitDy=0;entryX=0;entryY=0.5;entryDx=0;entryDy=0;strokeColor=#6666FF;" edge="1" parent="ejRBN-qsrpSPwmUWedO5-1" source="ejRBN-qsrpSPwmUWedO5-5" target="ejRBN-qsrpSPwmUWedO5-20">
          <mxGeometry relative="1" as="geometry">
            <mxPoint x="325" y="350" as="sourcePoint" />
            <mxPoint x="175" y="400" as="targetPoint" />
          </mxGeometry>
        </mxCell>
        <mxCell id="ejRBN-qsrpSPwmUWedO5-26" style="edgeStyle=orthogonalEdgeStyle;rounded=1;html=1;labelBackgroundColor=none;startArrow=none;startFill=0;startSize=5;endArrow=classicThin;endFill=1;endSize=5;jettySize=auto;orthogonalLoop=1;strokeWidth=1;fontFamily=Verdana;fontSize=8;entryX=0.5;entryY=1;entryDx=0;entryDy=0;strokeColor=#6666FF;exitX=0;exitY=0.5;exitDx=0;exitDy=0;" edge="1" parent="ejRBN-qsrpSPwmUWedO5-1" source="ejRBN-qsrpSPwmUWedO5-21" target="ejRBN-qsrpSPwmUWedO5-5">
          <mxGeometry relative="1" as="geometry">
            <mxPoint x="260" y="320" as="sourcePoint" />
            <mxPoint x="140" y="490" as="targetPoint" />
            <Array as="points">
              <mxPoint x="380" y="400" />
              <mxPoint x="380" y="340" />
              <mxPoint x="70" y="340" />
            </Array>
          </mxGeometry>
        </mxCell>
        <mxCell id="ejRBN-qsrpSPwmUWedO5-27" style="edgeStyle=orthogonalEdgeStyle;rounded=0;orthogonalLoop=1;jettySize=auto;html=1;exitX=0.5;exitY=1;exitDx=0;exitDy=0;fontFamily=Montserrat;fontSource=https%3A%2F%2Ffonts.googleapis.com%2Fcss%3Ffamily%3DMontserrat;fontSize=8;fontColor=#000000;strokeColor=#6666FF;" edge="1" parent="ejRBN-qsrpSPwmUWedO5-1" source="ejRBN-qsrpSPwmUWedO5-21" target="ejRBN-qsrpSPwmUWedO5-13">
          <mxGeometry relative="1" as="geometry">
            <Array as="points">
              <mxPoint x="440" y="460" />
              <mxPoint x="340" y="460" />
              <mxPoint x="340" y="400" />
            </Array>
          </mxGeometry>
        </mxCell>
        <mxCell id="ejRBN-qsrpSPwmUWedO5-28" style="edgeStyle=orthogonalEdgeStyle;rounded=0;orthogonalLoop=1;jettySize=auto;html=1;exitX=1;exitY=0.5;exitDx=0;exitDy=0;entryX=0;entryY=0.5;entryDx=0;entryDy=0;fontFamily=Montserrat;fontSource=https%3A%2F%2Ffonts.googleapis.com%2Fcss%3Ffamily%3DMontserrat;fontSize=8;fontColor=#000000;strokeColor=#6666FF;" edge="1" parent="ejRBN-qsrpSPwmUWedO5-1" source="ejRBN-qsrpSPwmUWedO5-10" target="ejRBN-qsrpSPwmUWedO5-23">
          <mxGeometry relative="1" as="geometry" />
        </mxCell>
        <mxCell id="ejRBN-qsrpSPwmUWedO5-29" style="edgeStyle=orthogonalEdgeStyle;rounded=1;html=1;labelBackgroundColor=none;startArrow=none;startFill=0;startSize=5;endArrow=classicThin;endFill=1;endSize=5;jettySize=auto;orthogonalLoop=1;strokeWidth=1;fontFamily=Verdana;fontSize=8;exitX=0;exitY=0.5;exitDx=0;exitDy=0;entryX=0.5;entryY=0;entryDx=0;entryDy=0;strokeColor=#6666FF;" edge="1" parent="ejRBN-qsrpSPwmUWedO5-1" source="ejRBN-qsrpSPwmUWedO5-10" target="ejRBN-qsrpSPwmUWedO5-5">
          <mxGeometry relative="1" as="geometry">
            <mxPoint x="288" y="270" as="sourcePoint" />
            <mxPoint x="78" y="300" as="targetPoint" />
            <Array as="points">
              <mxPoint x="70" y="210" />
            </Array>
          </mxGeometry>
        </mxCell>
        <mxCell id="ejRBN-qsrpSPwmUWedO5-30" style="edgeStyle=orthogonalEdgeStyle;rounded=1;html=1;labelBackgroundColor=none;startArrow=none;startFill=0;startSize=5;endArrow=classicThin;endFill=1;endSize=5;jettySize=auto;orthogonalLoop=1;strokeWidth=1;fontFamily=Verdana;fontSize=8;exitX=1;exitY=0.5;exitDx=0;exitDy=0;strokeColor=#6666FF;entryX=1;entryY=0.5;entryDx=0;entryDy=0;" edge="1" parent="ejRBN-qsrpSPwmUWedO5-1" source="ejRBN-qsrpSPwmUWedO5-23" target="ejRBN-qsrpSPwmUWedO5-16">
          <mxGeometry relative="1" as="geometry">
            <mxPoint x="520" y="270" as="sourcePoint" />
            <mxPoint x="340" y="470" as="targetPoint" />
            <Array as="points">
              <mxPoint x="500" y="210" />
              <mxPoint x="500" y="530" />
              <mxPoint x="390" y="530" />
              <mxPoint x="390" y="470" />
            </Array>
          </mxGeometry>
        </mxCell>
        <mxCell id="ejRBN-qsrpSPwmUWedO5-31" style="edgeStyle=orthogonalEdgeStyle;rounded=1;html=1;labelBackgroundColor=none;startArrow=none;startFill=0;startSize=5;endArrow=classicThin;endFill=1;endSize=5;jettySize=auto;orthogonalLoop=1;strokeWidth=1;fontFamily=Verdana;fontSize=8;entryX=1;entryY=0.5;entryDx=0;entryDy=0;strokeColor=#6666FF;exitX=0;exitY=0.5;exitDx=0;exitDy=0;" edge="1" parent="ejRBN-qsrpSPwmUWedO5-1" source="ejRBN-qsrpSPwmUWedO5-16" target="ejRBN-qsrpSPwmUWedO5-4">
          <mxGeometry relative="1" as="geometry">
            <mxPoint x="190" y="310" as="sourcePoint" />
            <mxPoint x="48" y="290" as="targetPoint" />
            <Array as="points">
              <mxPoint x="230" y="470" />
              <mxPoint x="230" y="470" />
            </Array>
          </mxGeometry>
        </mxCell>
        <mxCell id="ejRBN-qsrpSPwmUWedO5-36" style="edgeStyle=orthogonalEdgeStyle;rounded=0;orthogonalLoop=1;jettySize=auto;html=1;entryX=0;entryY=0.75;entryDx=0;entryDy=0;strokeColor=#6666FF;" edge="1" parent="ejRBN-qsrpSPwmUWedO5-1" source="ejRBN-qsrpSPwmUWedO5-13" target="ejRBN-qsrpSPwmUWedO5-23">
          <mxGeometry relative="1" as="geometry">
            <Array as="points">
              <mxPoint x="280" y="225" />
            </Array>
          </mxGeometry>
        </mxCell>
      </root>
    </mxGraphModel>
  </diagram>
</mxfile>
